<mxfile host="app.diagrams.net" modified="2021-11-13T08:30:25.299Z" agent="5.0 (Macintosh; Intel Mac OS X 10_15_7) AppleWebKit/537.36 (KHTML, like Gecko) Chrome/95.0.4638.69 Safari/537.36" etag="mCALluVqURf9QRiPpGJS" version="15.7.3" type="github">
  <diagram id="MR9MnnFLTP00P_tGPbx0" name="Page-1">
    <mxGraphModel dx="2125" dy="808" grid="1" gridSize="10" guides="1" tooltips="1" connect="1" arrows="1" fold="1" page="1" pageScale="1" pageWidth="827" pageHeight="1169" math="0" shadow="0">
      <root>
        <mxCell id="0" />
        <mxCell id="1" parent="0" />
        <mxCell id="Ux3_DWRhRO94aF-55bSF-1" value="机构系统" style="shape=umlLifeline;perimeter=lifelinePerimeter;whiteSpace=wrap;html=1;container=1;collapsible=0;recursiveResize=0;outlineConnect=0;fillColor=#d5e8d4;strokeColor=#82b366;" vertex="1" parent="1">
          <mxGeometry x="-120" y="130" width="100" height="890" as="geometry" />
        </mxCell>
        <mxCell id="Ux3_DWRhRO94aF-55bSF-2" value="教务系统" style="shape=umlLifeline;perimeter=lifelinePerimeter;whiteSpace=wrap;html=1;container=1;collapsible=0;recursiveResize=0;outlineConnect=0;fillColor=#d5e8d4;strokeColor=#82b366;" vertex="1" parent="1">
          <mxGeometry x="160" y="130" width="100" height="890" as="geometry" />
        </mxCell>
        <mxCell id="Ux3_DWRhRO94aF-55bSF-31" value="" style="html=1;points=[];perimeter=orthogonalPerimeter;fillColor=#f8cecc;strokeColor=#b85450;" vertex="1" parent="Ux3_DWRhRO94aF-55bSF-2">
          <mxGeometry x="40" y="400" width="10" height="40" as="geometry" />
        </mxCell>
        <mxCell id="Ux3_DWRhRO94aF-55bSF-32" value="2.4 引入资源课程，记录数据库引入关系" style="edgeStyle=orthogonalEdgeStyle;html=1;align=left;spacingLeft=2;endArrow=block;rounded=0;entryX=1;entryY=0;fillColor=#f8cecc;strokeColor=#b85450;" edge="1" target="Ux3_DWRhRO94aF-55bSF-31" parent="Ux3_DWRhRO94aF-55bSF-2">
          <mxGeometry relative="1" as="geometry">
            <mxPoint x="45" y="380" as="sourcePoint" />
            <Array as="points">
              <mxPoint x="75" y="380" />
            </Array>
          </mxGeometry>
        </mxCell>
        <mxCell id="Ux3_DWRhRO94aF-55bSF-53" value="" style="html=1;points=[];perimeter=orthogonalPerimeter;fillColor=#dae8fc;strokeColor=#6c8ebf;" vertex="1" parent="Ux3_DWRhRO94aF-55bSF-2">
          <mxGeometry x="45" y="760" width="10" height="60" as="geometry" />
        </mxCell>
        <mxCell id="Ux3_DWRhRO94aF-55bSF-3" value="课程系统" style="shape=umlLifeline;perimeter=lifelinePerimeter;whiteSpace=wrap;html=1;container=1;collapsible=0;recursiveResize=0;outlineConnect=0;fillColor=#e1d5e7;strokeColor=#9673a6;" vertex="1" parent="1">
          <mxGeometry x="680" y="130" width="100" height="890" as="geometry" />
        </mxCell>
        <mxCell id="Ux3_DWRhRO94aF-55bSF-10" value="" style="html=1;points=[];perimeter=orthogonalPerimeter;fillColor=#ffe6cc;strokeColor=#d79b00;" vertex="1" parent="Ux3_DWRhRO94aF-55bSF-3">
          <mxGeometry x="45" y="80" width="10" height="100" as="geometry" />
        </mxCell>
        <mxCell id="Ux3_DWRhRO94aF-55bSF-12" value="" style="html=1;points=[];perimeter=orthogonalPerimeter;fillColor=#ffe6cc;strokeColor=#d79b00;" vertex="1" parent="Ux3_DWRhRO94aF-55bSF-3">
          <mxGeometry x="50" y="130" width="10" height="40" as="geometry" />
        </mxCell>
        <mxCell id="Ux3_DWRhRO94aF-55bSF-13" value="1.2 创建资源课程&amp;amp;章节&amp;amp;物资&lt;br&gt;(物资已有了就选择)" style="edgeStyle=orthogonalEdgeStyle;html=1;align=left;spacingLeft=2;endArrow=block;rounded=0;entryX=1;entryY=0;fillColor=#ffe6cc;strokeColor=#d79b00;" edge="1" target="Ux3_DWRhRO94aF-55bSF-12" parent="Ux3_DWRhRO94aF-55bSF-3">
          <mxGeometry relative="1" as="geometry">
            <mxPoint x="55" y="110" as="sourcePoint" />
            <Array as="points">
              <mxPoint x="85" y="110" />
            </Array>
          </mxGeometry>
        </mxCell>
        <mxCell id="Ux3_DWRhRO94aF-55bSF-22" value="" style="html=1;points=[];perimeter=orthogonalPerimeter;fillColor=#f8cecc;strokeColor=#b85450;" vertex="1" parent="Ux3_DWRhRO94aF-55bSF-3">
          <mxGeometry x="45" y="280" width="10" height="100" as="geometry" />
        </mxCell>
        <mxCell id="Ux3_DWRhRO94aF-55bSF-25" value="" style="html=1;points=[];perimeter=orthogonalPerimeter;fillColor=#f8cecc;strokeColor=#b85450;" vertex="1" parent="Ux3_DWRhRO94aF-55bSF-3">
          <mxGeometry x="50" y="330" width="10" height="40" as="geometry" />
        </mxCell>
        <mxCell id="Ux3_DWRhRO94aF-55bSF-26" value="2.3 机构+自己 上架 &amp;amp; 没有被选择过的资源课程&lt;br&gt;&lt;b&gt;（&lt;font color=&quot;#cc0066&quot;&gt;如果只展示未选择的，查询的时候需要传已选择的res_course_id&lt;/font&gt;）&lt;/b&gt;" style="edgeStyle=orthogonalEdgeStyle;html=1;align=left;spacingLeft=2;endArrow=block;rounded=0;entryX=1;entryY=0;fillColor=#f8cecc;strokeColor=#b85450;" edge="1" target="Ux3_DWRhRO94aF-55bSF-25" parent="Ux3_DWRhRO94aF-55bSF-3">
          <mxGeometry relative="1" as="geometry">
            <mxPoint x="55" y="310" as="sourcePoint" />
            <Array as="points">
              <mxPoint x="85" y="310" />
            </Array>
          </mxGeometry>
        </mxCell>
        <mxCell id="Ux3_DWRhRO94aF-55bSF-17" value="" style="html=1;points=[];perimeter=orthogonalPerimeter;fillColor=#f8cecc;strokeColor=#b85450;" vertex="1" parent="Ux3_DWRhRO94aF-55bSF-3">
          <mxGeometry x="45" y="220" width="10" height="40" as="geometry" />
        </mxCell>
        <mxCell id="Ux3_DWRhRO94aF-55bSF-33" value="" style="html=1;points=[];perimeter=orthogonalPerimeter;fillColor=#dae8fc;strokeColor=#6c8ebf;" vertex="1" parent="Ux3_DWRhRO94aF-55bSF-3">
          <mxGeometry x="45" y="500" width="10" height="40" as="geometry" />
        </mxCell>
        <mxCell id="Ux3_DWRhRO94aF-55bSF-56" value="" style="html=1;points=[];perimeter=orthogonalPerimeter;fillColor=#dae8fc;strokeColor=#6c8ebf;" vertex="1" parent="Ux3_DWRhRO94aF-55bSF-3">
          <mxGeometry x="45" y="800" width="10" height="40" as="geometry" />
        </mxCell>
        <mxCell id="Ux3_DWRhRO94aF-55bSF-58" value="return" style="html=1;verticalAlign=bottom;endArrow=open;dashed=1;endSize=8;exitX=0;exitY=0.95;rounded=0;fillColor=#dae8fc;strokeColor=#6c8ebf;" edge="1" source="Ux3_DWRhRO94aF-55bSF-56" parent="Ux3_DWRhRO94aF-55bSF-3">
          <mxGeometry relative="1" as="geometry">
            <mxPoint x="-10" y="838" as="targetPoint" />
          </mxGeometry>
        </mxCell>
        <mxCell id="Ux3_DWRhRO94aF-55bSF-4" value="售卖系统" style="shape=umlLifeline;perimeter=lifelinePerimeter;whiteSpace=wrap;html=1;container=1;collapsible=0;recursiveResize=0;outlineConnect=0;fillColor=#e1d5e7;strokeColor=#9673a6;" vertex="1" parent="1">
          <mxGeometry x="960" y="130" width="100" height="890" as="geometry" />
        </mxCell>
        <mxCell id="Ux3_DWRhRO94aF-55bSF-38" value="" style="html=1;points=[];perimeter=orthogonalPerimeter;fillColor=#dae8fc;strokeColor=#6c8ebf;" vertex="1" parent="Ux3_DWRhRO94aF-55bSF-4">
          <mxGeometry x="45" y="562" width="10" height="218" as="geometry" />
        </mxCell>
        <mxCell id="Ux3_DWRhRO94aF-55bSF-44" value="" style="html=1;points=[];perimeter=orthogonalPerimeter;fillColor=#dae8fc;strokeColor=#6c8ebf;" vertex="1" parent="Ux3_DWRhRO94aF-55bSF-4">
          <mxGeometry x="50" y="610" width="10" height="40" as="geometry" />
        </mxCell>
        <mxCell id="Ux3_DWRhRO94aF-55bSF-45" value="3.3 判断事物是否已经存在sku" style="edgeStyle=orthogonalEdgeStyle;html=1;align=left;spacingLeft=2;endArrow=block;rounded=0;entryX=1;entryY=0;fillColor=#dae8fc;strokeColor=#6c8ebf;" edge="1" target="Ux3_DWRhRO94aF-55bSF-44" parent="Ux3_DWRhRO94aF-55bSF-4">
          <mxGeometry relative="1" as="geometry">
            <mxPoint x="55" y="590" as="sourcePoint" />
            <Array as="points">
              <mxPoint x="85" y="590" />
            </Array>
          </mxGeometry>
        </mxCell>
        <mxCell id="Ux3_DWRhRO94aF-55bSF-51" value="" style="html=1;points=[];perimeter=orthogonalPerimeter;fillColor=#dae8fc;strokeColor=#6c8ebf;" vertex="1" parent="Ux3_DWRhRO94aF-55bSF-4">
          <mxGeometry x="50" y="720" width="10" height="40" as="geometry" />
        </mxCell>
        <mxCell id="Ux3_DWRhRO94aF-55bSF-52" value="3.5 录入sku &lt;br&gt;&amp;amp; 记录course_id、school_id等相关信息" style="edgeStyle=orthogonalEdgeStyle;html=1;align=left;spacingLeft=2;endArrow=block;rounded=0;entryX=1;entryY=0;fillColor=#dae8fc;strokeColor=#6c8ebf;" edge="1" target="Ux3_DWRhRO94aF-55bSF-51" parent="Ux3_DWRhRO94aF-55bSF-4">
          <mxGeometry relative="1" as="geometry">
            <mxPoint x="55" y="700" as="sourcePoint" />
            <Array as="points">
              <mxPoint x="85" y="700" />
            </Array>
          </mxGeometry>
        </mxCell>
        <mxCell id="Ux3_DWRhRO94aF-55bSF-5" value="售卖中台" style="shape=umlLifeline;perimeter=lifelinePerimeter;whiteSpace=wrap;html=1;container=1;collapsible=0;recursiveResize=0;outlineConnect=0;fillColor=#f5f5f5;fontColor=#333333;strokeColor=#666666;" vertex="1" parent="1">
          <mxGeometry x="1220" y="130" width="100" height="890" as="geometry" />
        </mxCell>
        <mxCell id="Ux3_DWRhRO94aF-55bSF-46" value="" style="html=1;points=[];perimeter=orthogonalPerimeter;fillColor=#dae8fc;strokeColor=#6c8ebf;" vertex="1" parent="Ux3_DWRhRO94aF-55bSF-5">
          <mxGeometry x="45" y="660" width="10" height="30" as="geometry" />
        </mxCell>
        <mxCell id="Ux3_DWRhRO94aF-55bSF-48" value="return" style="html=1;verticalAlign=bottom;endArrow=open;dashed=1;endSize=8;exitX=0;exitY=0.95;rounded=0;fillColor=#dae8fc;strokeColor=#6c8ebf;" edge="1" source="Ux3_DWRhRO94aF-55bSF-46" parent="Ux3_DWRhRO94aF-55bSF-5">
          <mxGeometry relative="1" as="geometry">
            <mxPoint x="-10" y="689" as="targetPoint" />
          </mxGeometry>
        </mxCell>
        <mxCell id="Ux3_DWRhRO94aF-55bSF-11" value="1.1 创建资源课程" style="html=1;verticalAlign=bottom;startArrow=oval;endArrow=block;startSize=8;rounded=0;fillColor=#ffe6cc;strokeColor=#d79b00;" edge="1" target="Ux3_DWRhRO94aF-55bSF-10" parent="1" source="Ux3_DWRhRO94aF-55bSF-1">
          <mxGeometry relative="1" as="geometry">
            <mxPoint x="665" y="210" as="sourcePoint" />
            <Array as="points">
              <mxPoint x="300" y="210" />
            </Array>
          </mxGeometry>
        </mxCell>
        <mxCell id="Ux3_DWRhRO94aF-55bSF-18" value="2.1&amp;nbsp; 查询教务下可选的机构" style="html=1;verticalAlign=bottom;startArrow=oval;endArrow=block;startSize=8;rounded=0;fillColor=#f8cecc;strokeColor=#b85450;" edge="1" parent="1" target="Ux3_DWRhRO94aF-55bSF-17" source="Ux3_DWRhRO94aF-55bSF-2">
          <mxGeometry relative="1" as="geometry">
            <mxPoint x="399" y="360" as="sourcePoint" />
            <Array as="points">
              <mxPoint x="290" y="360" />
            </Array>
          </mxGeometry>
        </mxCell>
        <mxCell id="Ux3_DWRhRO94aF-55bSF-19" value="创建资源课程" style="text;html=1;align=center;verticalAlign=middle;resizable=0;points=[];autosize=1;strokeColor=#d79b00;fillColor=#ffe6cc;" vertex="1" parent="1">
          <mxGeometry x="-165" y="200" width="90" height="20" as="geometry" />
        </mxCell>
        <mxCell id="Ux3_DWRhRO94aF-55bSF-21" value="return" style="html=1;verticalAlign=bottom;endArrow=open;dashed=1;endSize=8;rounded=0;fillColor=#f8cecc;strokeColor=#b85450;" edge="1" parent="1" source="Ux3_DWRhRO94aF-55bSF-17">
          <mxGeometry relative="1" as="geometry">
            <mxPoint x="450" y="390" as="sourcePoint" />
            <mxPoint x="670" y="390" as="targetPoint" />
          </mxGeometry>
        </mxCell>
        <mxCell id="Ux3_DWRhRO94aF-55bSF-23" value="2.2 根据机构查询可选资源课程" style="html=1;verticalAlign=bottom;endArrow=block;entryX=0;entryY=0;rounded=0;fillColor=#f8cecc;strokeColor=#b85450;" edge="1" target="Ux3_DWRhRO94aF-55bSF-22" parent="1" source="Ux3_DWRhRO94aF-55bSF-2">
          <mxGeometry relative="1" as="geometry">
            <mxPoint x="655" y="410" as="sourcePoint" />
          </mxGeometry>
        </mxCell>
        <mxCell id="Ux3_DWRhRO94aF-55bSF-27" value="引入资源课程" style="text;html=1;align=center;verticalAlign=middle;resizable=0;points=[];autosize=1;strokeColor=#b85450;fillColor=#f8cecc;" vertex="1" parent="1">
          <mxGeometry x="110" y="350" width="90" height="20" as="geometry" />
        </mxCell>
        <mxCell id="Ux3_DWRhRO94aF-55bSF-28" value="return" style="html=1;verticalAlign=bottom;endArrow=open;dashed=1;endSize=8;rounded=0;exitX=-0.2;exitY=0.9;exitDx=0;exitDy=0;exitPerimeter=0;fillColor=#f8cecc;strokeColor=#b85450;" edge="1" parent="1" source="Ux3_DWRhRO94aF-55bSF-22">
          <mxGeometry relative="1" as="geometry">
            <mxPoint x="710" y="500" as="sourcePoint" />
            <mxPoint x="670" y="500" as="targetPoint" />
          </mxGeometry>
        </mxCell>
        <mxCell id="Ux3_DWRhRO94aF-55bSF-34" value="3.1 创建课程&lt;br&gt;【课程状态为初始化】" style="html=1;verticalAlign=bottom;startArrow=oval;endArrow=block;startSize=8;rounded=0;fillColor=#dae8fc;strokeColor=#6c8ebf;" edge="1" target="Ux3_DWRhRO94aF-55bSF-33" parent="1" source="Ux3_DWRhRO94aF-55bSF-2">
          <mxGeometry relative="1" as="geometry">
            <mxPoint x="665" y="630" as="sourcePoint" />
            <Array as="points">
              <mxPoint x="370" y="630" />
            </Array>
          </mxGeometry>
        </mxCell>
        <mxCell id="Ux3_DWRhRO94aF-55bSF-35" value="创建课程" style="text;html=1;align=center;verticalAlign=middle;resizable=0;points=[];autosize=1;strokeColor=#6c8ebf;fillColor=#dae8fc;" vertex="1" parent="1">
          <mxGeometry x="130" y="620" width="60" height="20" as="geometry" />
        </mxCell>
        <mxCell id="Ux3_DWRhRO94aF-55bSF-36" value="return course_id" style="html=1;verticalAlign=bottom;endArrow=open;dashed=1;endSize=8;rounded=0;fillColor=#dae8fc;strokeColor=#6c8ebf;" edge="1" parent="1">
          <mxGeometry relative="1" as="geometry">
            <mxPoint x="724" y="670" as="sourcePoint" />
            <mxPoint x="620" y="670" as="targetPoint" />
          </mxGeometry>
        </mxCell>
        <mxCell id="Ux3_DWRhRO94aF-55bSF-39" value="3.2 创建sku" style="html=1;verticalAlign=bottom;endArrow=block;entryX=0;entryY=0;rounded=0;fillColor=#dae8fc;strokeColor=#6c8ebf;" edge="1" target="Ux3_DWRhRO94aF-55bSF-38" parent="1">
          <mxGeometry relative="1" as="geometry">
            <mxPoint x="209.5" y="692" as="sourcePoint" />
          </mxGeometry>
        </mxCell>
        <mxCell id="Ux3_DWRhRO94aF-55bSF-47" value="3.4 生成课程sku&lt;br&gt;[如果事物已经有了，就添加库存]" style="html=1;verticalAlign=bottom;endArrow=block;entryX=0;entryY=0;rounded=0;fillColor=#dae8fc;strokeColor=#6c8ebf;" edge="1" target="Ux3_DWRhRO94aF-55bSF-46" parent="1" source="Ux3_DWRhRO94aF-55bSF-4">
          <mxGeometry relative="1" as="geometry">
            <mxPoint x="1195" y="790" as="sourcePoint" />
          </mxGeometry>
        </mxCell>
        <mxCell id="Ux3_DWRhRO94aF-55bSF-40" value="return" style="html=1;verticalAlign=bottom;endArrow=open;dashed=1;endSize=8;exitX=0;exitY=0.95;rounded=0;fillColor=#dae8fc;strokeColor=#6c8ebf;" edge="1" source="Ux3_DWRhRO94aF-55bSF-38" parent="1" target="Ux3_DWRhRO94aF-55bSF-2">
          <mxGeometry relative="1" as="geometry">
            <mxPoint x="330" y="899" as="targetPoint" />
          </mxGeometry>
        </mxCell>
        <mxCell id="Ux3_DWRhRO94aF-55bSF-57" value="3.6 通知课程系统生成sku&lt;br&gt;【课程系统修改状态为创建成功 &amp;amp; 记录sku】" style="html=1;verticalAlign=bottom;endArrow=block;entryX=0;entryY=0;rounded=0;fillColor=#dae8fc;strokeColor=#6c8ebf;" edge="1" target="Ux3_DWRhRO94aF-55bSF-56" parent="1" source="Ux3_DWRhRO94aF-55bSF-2">
          <mxGeometry relative="1" as="geometry">
            <mxPoint x="655" y="930" as="sourcePoint" />
          </mxGeometry>
        </mxCell>
      </root>
    </mxGraphModel>
  </diagram>
</mxfile>
